<svg xmlns="http://www.w3.org/2000/svg" width="643.677" height="363.815" viewBox="0 0 643.677 363.815">
  <g id="Group_6" data-name="Group 6" transform="translate(-349.167 -257.632)">
    <path id="Path_19" data-name="Path 19" d="M434.378,322.155l-.068,113.6c17.981,26.391,48.5,42.987,78.407,42.987q5.99,0,11.722-.551l.145-201.943a105.621,105.621,0,0,0-11.718-.677C486.989,275.568,453.08,291.135,434.378,322.155Z" transform="translate(299.03 62.994)" fill="#fff"/>
    <path id="Path_20" data-name="Path 20" d="M411.946,439.452c.185-100.177,80.473-181.693,180.213-181.743h0c99.731.05,180.019,81.565,180.2,181.743h0c-.18,100.168-80.469,181.675-180.2,181.724h0c-99.74-.05-180.028-81.556-180.213-181.724Zm53.721,0c0,70.885,56.848,127.882,126.492,128.008h0c69.631-.126,126.479-57.123,126.488-128.008h0c-.009-70.9-56.857-127.891-126.488-128.022h0c-69.644.131-126.487,57.123-126.492,128.022Z" transform="translate(220.486 0.271)" fill="#fff"/>
    <path id="Path_21" data-name="Path 21" d="M608.991,257.705c-13.2,0-46.9,3.109-70.7,34.165-1.2,1.43-2.292,2.8-3.19,4-.068.086-.131.185-.2.266-26.666-36.449-64.306-38.217-82.215-38.217-50.147,0-75.014,25.583-84.209,37.924-10.112,12.805-19.307,36.182-19.307,72.36V538.19h61.189V375.254c0-14.109,0-63.521,48.293-63.521,17.042,0,33.6,8.83,42.332,22.935,9.674,14.561,9.2,38.831,9.2,54.267V538.19h5.595v0h61.184V375.268c0-14.114,0-63.95,48.32-63.508a52.8,52.8,0,0,1,18.369,3.109c10.445-13.906,22.768-29.6,36.376-40.261-24.623-18.933-55.8-16.857-61.252-16.947" transform="translate(0 0)" fill="#fff"/>
  </g>
</svg>
